# xmcd
# 
# Track frame offsets:
#     150
#     23442
#     44157
#     66437
#     88805
#     116205
#     140955
#     155720
#     177192
# 
# Disc length: 2592
# 
# Revision: 9
# Processed by: cddbd v1.5.2PL0 Copyright (c) Steve Scherf et al.
# Submitted via: BonkEnc v1.0.8
# 
DISCID=880a1e09
DTITLE=Roberto Carlos - Roberto Carlos 1993
DYEAR=1993
DGENRE=MPB
TTITLE0=O Velho Caminhoneiro
TTITLE1=Coisa Bonita
TTITLE2=Hoje É Domingo
TTITLE3=Obsessão
TTITLE4=Nossa Senhora
TTITLE5=Tanta Solidão
TTITLE6=Se Você Pensa
TTITLE7=Parabéns
TTITLE8=Mis Amores
EXTD=
EXTT0=
EXTT1=
EXTT2=
EXTT3=
EXTT4=
EXTT5=
EXTT6=
EXTT7=
EXTT8=
PLAYORDER=
